<svg width="69" height="78" viewBox="0 0 69 78" fill="none" xmlns="http://www.w3.org/2000/svg">
<path d="M32.6189 11.3158C31.8312 10.9958 31.2403 9.84905 31.0434 9.31567L31.8311 12.916C30.0586 14.5161 29.0314 15.9162 28.6801 20.3166C28.2329 25.917 30.0587 31.4014 32.6189 34.335L36.8636 30.9767C34.0146 28.1222 32.6189 23.1168 32.6189 19.5165C32.6189 15.9817 33.8006 13.116 34.5884 12.1159L32.6189 11.3158Z" fill="#0F7DFF"/>
<path d="M12.1104 16.1029C13.3419 23.1562 24.487 30.3426 31.4072 34.8674L27.9471 37.3959C22.3577 33.4035 11.0457 26.8825 8.78336 19.563C5.74085 9.71952 10.7796 2.70599 14.3728 0C13.1307 2.57291 10.9393 9.39556 12.1104 16.1029Z" fill="#0F7DFF"/>
<path d="M8.78336 26.6161C4.25518 21.6497 3.94807 14.4613 4.25859 11.5779C2.88342 14.8162 -0.266175 20.7057 4.65784 27.9469C8.27765 33.2702 17.5224 39.5694 21.6923 42.0536L25.1524 39.6581C20.6276 36.4641 13.4412 31.7247 8.78336 26.6161Z" fill="#0F7DFF"/>
<path d="M5.45634 34.3349C2.79471 31.5668 0.709768 28.0357 0 26.6162V30.4756C0 32.738 1.06465 34.8673 2.79471 37.2627C4.17876 39.1791 11.7112 44.5379 15.3044 46.9777L18.7645 44.183C15.4375 42.0537 8.11798 37.103 5.45634 34.3349Z" fill="#0F7DFF"/>
<path d="M13.7075 51.6356C16.2359 54.9627 20.2285 59.3544 33.9359 77.1873L19.5631 53.3657C34.7343 41.3884 41.6545 38.9929 55.495 26.7494C66.914 16.6479 59.2214 2.39547 54.1643 0C55.362 1.15337 60.8769 12.5097 53.0996 21.8254C49.8085 25.7675 13.4797 51.3359 13.7075 51.6356Z" fill="url(#paint0_linear_10_1016)"/>
<path d="M37.6836 8.85701C34.1584 8.54554 31.9418 7.16989 31.2742 6.521C31.2742 7.42944 31.5145 9.40207 32.4759 10.025C33.6777 10.8037 34.8795 10.609 38.685 11.193C41.7295 11.6602 42.4906 12.5557 42.4906 12.945C41.7562 12.6206 39.9669 11.9717 38.685 11.9717C37.0827 11.9717 36.2815 11.777 37.6836 12.945C38.8052 13.8794 41.3556 14.113 42.4906 14.113C42.1568 14.3726 41.0085 14.8528 39.0856 14.697C37.1628 14.5413 35.7474 13.7237 35.28 13.3344C34.8127 13.4641 33.9982 14.8528 34.4789 19.369C34.9596 23.8853 37.8946 27.6458 39.6305 28.8787L44.6442 25.7321C43.3089 25.4725 38.645 23.3792 37.6836 21.5104C36.4818 19.1744 38.8853 16.8384 41.4892 16.449C43.5722 16.1376 45.0277 17.4873 45.495 18.201C45.6953 17.2926 45.8556 15.0474 44.8942 13.3344C43.6924 11.193 42.09 9.24634 37.6836 8.85701Z" fill="url(#paint1_linear_10_1016)"/>
<path d="M62.6813 35.0006C58.6356 38.6204 48.2642 45.7802 43.6507 48.8411C45.3364 50.0832 48.8408 52.5674 49.107 52.9666C49.2547 53.1881 35.2393 76.522 35.2393 77.3205L35.0004 77.7198L54.6964 52.035L51.1032 49.1072C53.5431 47.4215 59.6471 42.9589 64.5445 38.5938C69.4419 34.2287 69.3354 28.7901 68.67 26.6165C68.3595 27.9029 66.727 31.3808 62.6813 35.0006Z" fill="url(#paint2_linear_10_1016)"/>
<path d="M40.856 50.9702L37.2628 53.4988L39.3921 55.0957L34.8673 71.1986L44.8484 54.0311L40.856 50.9702Z" fill="url(#paint3_linear_10_1016)"/>
<path d="M29.9434 55.0957L34.4681 71.7309L24.0878 53.7649C35.6659 45.5582 56.9492 30.6746 60.6852 25.8178C64.6776 20.6276 64.5002 15.2156 64.6776 11.8442C66.0528 12.9089 69.4686 20.2284 65.21 27.1486C60.2815 35.1574 29.9434 54.8296 29.9434 55.0957Z" fill="url(#paint4_linear_10_1016)"/>
<defs>
<linearGradient id="paint0_linear_10_1016" x1="59.9937" y1="20.7507" x2="17.0641" y2="70.7281" gradientUnits="userSpaceOnUse">
<stop/>
<stop offset="1" stop-color="#0F7DFF"/>
</linearGradient>
<linearGradient id="paint1_linear_10_1016" x1="45.2153" y1="12.5315" x2="32.8627" y2="27.4846" gradientUnits="userSpaceOnUse">
<stop/>
<stop offset="1" stop-color="#0F7DFF"/>
</linearGradient>
<linearGradient id="paint2_linear_10_1016" x1="67.9787" y1="40.3548" x2="39.9425" y2="75.4787" gradientUnits="userSpaceOnUse">
<stop/>
<stop offset="1" stop-color="#0F7DFF"/>
</linearGradient>
<linearGradient id="paint3_linear_10_1016" x1="44.5486" y1="56.4083" x2="33.1986" y2="66.954" gradientUnits="userSpaceOnUse">
<stop/>
<stop offset="1" stop-color="#0F7DFF"/>
</linearGradient>
<linearGradient id="paint4_linear_10_1016" x1="65.9815" y1="27.9439" x2="33.8073" y2="71.6386" gradientUnits="userSpaceOnUse">
<stop/>
<stop offset="1" stop-color="#0F7DFF"/>
</linearGradient>
</defs>
</svg>
