<svg width="29" height="28" viewBox="0 0 29 28" fill="none" xmlns="http://www.w3.org/2000/svg">
<ellipse cx="14.6579" cy="14" rx="14.3421" ry="14" fill="white"/>
<path d="M21.3193 7.37189C20.8694 6.95868 19.0472 5.63035 14.9893 5.61292C14.9893 5.61292 10.2009 5.32557 7.86837 7.47197C6.57091 8.773 6.1165 10.6783 6.06433 13.0415C6.01216 15.4048 5.95394 19.8341 10.2115 21.038H10.2153L10.2115 22.8721C10.2115 22.8721 10.1835 23.6151 10.6705 23.7644C11.2587 23.9494 11.6065 23.3838 12.1698 22.7758C12.4783 22.4414 12.9032 21.9516 13.2261 21.5779C15.0762 21.7497 16.942 21.6069 18.7448 21.1556L18.6314 21.1798C19.2196 20.988 22.5479 20.5611 23.0863 16.1326C23.6488 11.5608 22.8186 8.67671 21.3193 7.37189ZM21.8123 15.799C21.3533 19.4951 18.6571 19.7302 18.1611 19.8894C17.0784 20.1654 15.8353 20.3231 14.5553 20.3231C14.1878 20.3231 13.8234 20.3102 13.4627 20.2844L13.5111 20.2874C13.5111 20.2874 11.6677 22.5157 11.0939 23.095C10.9064 23.283 10.6999 23.2678 10.7037 22.8925C10.7037 22.6476 10.7181 19.8462 10.7181 19.8462C7.11379 18.8439 7.32247 15.0712 7.36481 13.1007C7.40715 11.1302 7.77613 9.51071 8.87473 8.42348C10.8496 6.62887 14.9152 6.89499 14.9152 6.89499C18.3501 6.9094 19.9946 7.94734 20.3772 8.29535C21.6429 9.38333 22.2878 11.9854 21.8123 15.7983V15.799ZM16.8893 12.9271V12.9377C16.8877 12.9967 16.8636 13.0529 16.8219 13.0946C16.7802 13.1363 16.7241 13.1604 16.6652 13.1618C16.6064 13.1633 16.5492 13.142 16.5055 13.1024C16.4618 13.0628 16.4349 13.0079 16.4304 12.949V12.9483C16.4458 12.79 16.4267 12.6302 16.3746 12.48C16.3224 12.3298 16.2384 12.1928 16.1282 12.0783C16.0181 11.9638 15.8845 11.8747 15.7367 11.817C15.5889 11.7594 15.4304 11.7346 15.272 11.7443H15.2751C15.2163 11.7397 15.1615 11.7127 15.1221 11.6688C15.0826 11.6249 15.0615 11.5675 15.063 11.5084C15.0646 11.4494 15.0887 11.3931 15.1304 11.3514C15.1721 11.3096 15.2282 11.2855 15.2872 11.2841H15.3H15.2993L15.3514 11.2833C15.5625 11.2833 15.7714 11.3267 15.965 11.411C16.1587 11.4952 16.333 11.6185 16.4771 11.7731C16.6213 11.9278 16.7322 12.1105 16.8029 12.3099C16.8737 12.5093 16.9029 12.7212 16.8886 12.9324V12.9278L16.8893 12.9271ZM17.6084 13.3296C17.6439 11.8224 16.7048 10.6427 14.922 10.5107C14.891 10.5098 14.8606 10.5025 14.8325 10.4895C14.8044 10.4765 14.7793 10.4579 14.7585 10.4348C14.7378 10.4118 14.7219 10.3848 14.7118 10.3554C14.7018 10.3261 14.6977 10.295 14.6999 10.2641C14.7021 10.2331 14.7105 10.2029 14.7246 10.1753C14.7387 10.1477 14.7582 10.1232 14.782 10.1033C14.8058 10.0834 14.8333 10.0686 14.8629 10.0597C14.8926 10.0507 14.9237 10.0479 14.9545 10.0513H14.9537H14.9666C15.3897 10.0513 15.8083 10.138 16.1968 10.3061C16.5853 10.4742 16.9354 10.7202 17.2256 11.0289C17.5159 11.3376 17.7401 11.7026 17.8846 12.1013C18.0291 12.5001 18.0907 12.9243 18.0658 13.3478L18.0666 13.3395C18.0625 13.3983 18.0362 13.4532 17.993 13.4931C17.9498 13.5331 17.893 13.5549 17.8342 13.5541C17.7755 13.5533 17.7193 13.53 17.6771 13.489C17.635 13.4479 17.6101 13.3923 17.6076 13.3334V13.3274L17.6084 13.3296ZM19.2718 13.8065V13.8081C19.2687 13.8668 19.2434 13.9222 19.2009 13.9628C19.1584 14.0034 19.1021 14.0262 19.0434 14.0265C18.9847 14.0268 18.9281 14.0046 18.8852 13.9644C18.8424 13.9242 18.8165 13.8691 18.8128 13.8103C18.7947 10.9126 16.8674 9.33481 14.5318 9.31813C14.5017 9.31813 14.4719 9.31219 14.4442 9.30064C14.4164 9.2891 14.3911 9.27218 14.3698 9.25084C14.3486 9.22951 14.3317 9.20419 14.3202 9.17631C14.3087 9.14844 14.3027 9.11857 14.3027 9.0884C14.3027 9.05823 14.3087 9.02836 14.3202 9.00049C14.3317 8.97262 14.3486 8.94729 14.3698 8.92596C14.3911 8.90463 14.4164 8.88771 14.4442 8.87616C14.4719 8.86462 14.5017 8.85867 14.5318 8.85867C17.1472 8.87687 19.2491 10.6866 19.2703 13.8058L19.2718 13.8065ZM18.8748 17.2926V17.2995C18.4922 17.975 17.7762 18.721 17.039 18.483L17.0322 18.4724C15.7179 17.9874 14.4859 17.3023 13.3795 16.4412L13.4105 16.464C12.86 16.0256 12.3606 15.5264 11.9218 14.9756L11.9074 14.9567C11.5101 14.4552 11.1555 13.921 10.8474 13.36L10.8171 13.3001C10.4526 12.6974 10.1503 12.059 9.91512 11.3948L9.89243 11.3205C9.65502 10.5813 10.3952 9.86326 11.0727 9.47962H11.0795C11.2128 9.39407 11.3728 9.36077 11.529 9.38609C11.6853 9.4114 11.8267 9.49356 11.9263 9.61685L11.9271 9.61837C11.9271 9.61837 12.3664 10.1438 12.5546 10.4038C12.7316 10.6457 12.9697 11.0331 13.093 11.2492C13.1858 11.3969 13.2235 11.5726 13.1996 11.7455C13.1757 11.9184 13.0916 12.0772 12.9622 12.1939L12.9614 12.1947L12.5365 12.5358C12.4702 12.6 12.419 12.6781 12.3866 12.7645C12.3542 12.8509 12.3413 12.9435 12.349 13.0355V13.0332C12.5594 13.7363 12.9391 14.3766 13.4547 14.8977C13.9703 15.4188 14.6058 15.8046 15.3053 16.0212L15.3371 16.0295C15.4284 16.0367 15.5202 16.0237 15.6059 15.9913C15.6916 15.959 15.7692 15.9081 15.8331 15.8422L16.1733 15.4162C16.2902 15.2858 16.4494 15.2013 16.6226 15.1775C16.7957 15.1538 16.9717 15.1924 17.1192 15.2865L17.1162 15.285C17.7309 15.636 18.2624 16.0219 18.747 16.4594L18.7387 16.4518C18.8617 16.5501 18.9435 16.691 18.9681 16.8467C18.9928 17.0024 18.9584 17.1618 18.8718 17.2934L18.8733 17.2911L18.8748 17.2926Z" fill="#1A323C"/>
</svg>
