<svg width="29" height="28" viewBox="0 0 29 28" fill="none" xmlns="http://www.w3.org/2000/svg">
<ellipse cx="14.5" cy="14" rx="14.5" ry="14" fill="white"/>
<path d="M5.80349 22.4001L6.97973 18.227C6.20468 16.9442 5.79749 15.4852 5.80001 14.0001C5.80001 9.36077 9.695 5.6001 14.5 5.6001C19.305 5.6001 23.2 9.36077 23.2 14.0001C23.2 18.6394 19.305 22.4001 14.5 22.4001C12.9625 22.4025 11.4521 22.0096 10.1239 21.2619L5.80349 22.4001ZM11.3602 10.0588C11.2478 10.0655 11.138 10.0941 11.0374 10.1428C10.943 10.1944 10.8569 10.2589 10.7816 10.3343C10.6772 10.4293 10.6181 10.5116 10.5546 10.5914C10.233 10.9954 10.0601 11.4914 10.063 12.0009C10.0648 12.4125 10.1761 12.8132 10.3501 13.1878C10.7059 13.9455 11.2915 14.7477 12.0649 15.4911C12.2511 15.67 12.4329 15.8498 12.6286 16.0169C13.5886 16.833 14.7325 17.4214 15.9694 17.7356L16.4645 17.8086C16.6254 17.817 16.7864 17.8053 16.9482 17.7977C17.2016 17.7851 17.449 17.7189 17.6729 17.6037C17.7868 17.547 17.898 17.4854 18.0061 17.4189C18.0061 17.4189 18.0435 17.3954 18.1149 17.3433C18.2323 17.2593 18.3045 17.1996 18.402 17.1014C18.4742 17.0291 18.5368 16.9443 18.5847 16.8477C18.6525 16.7108 18.7204 16.4495 18.7482 16.232C18.7691 16.0656 18.763 15.9749 18.7604 15.9187C18.7569 15.8288 18.6795 15.7355 18.5951 15.6961L18.0888 15.4768C18.0888 15.4768 17.3319 15.1585 16.8699 14.9552C16.8212 14.9347 16.769 14.923 16.7159 14.9207C16.6564 14.9148 16.5962 14.9213 16.5395 14.9397C16.4828 14.9581 16.4308 14.988 16.387 15.0274V15.0257C16.3827 15.0257 16.3244 15.0736 15.6954 15.8095C15.6593 15.8563 15.6096 15.8917 15.5525 15.9111C15.4955 15.9306 15.4338 15.9332 15.3752 15.9187C15.3185 15.904 15.263 15.8855 15.2091 15.8632C15.1012 15.8195 15.0638 15.8027 14.9898 15.7717L14.9855 15.77C14.4878 15.5602 14.0269 15.2768 13.6196 14.93C13.5099 14.8376 13.4082 14.7368 13.3038 14.6393C12.9615 14.3229 12.6632 13.9648 12.4164 13.5742L12.365 13.4944C12.3282 13.4408 12.2984 13.3829 12.2763 13.3222C12.2432 13.1987 12.3294 13.0996 12.3294 13.0996C12.3294 13.0996 12.5408 12.8762 12.6391 12.7552C12.7209 12.6547 12.7973 12.5501 12.8679 12.4419C12.9706 12.2823 13.0027 12.1185 12.9488 11.9917C12.7052 11.4171 12.4529 10.8451 12.1936 10.2772C12.1423 10.1647 11.9901 10.084 11.8517 10.0681C11.8048 10.063 11.7578 10.058 11.7108 10.0546C11.594 10.049 11.4769 10.0501 11.3602 10.058V10.0588Z" fill="#1A323C"/>
</svg>
