<svg width="20" height="20" viewBox="0 0 20 20" fill="none" xmlns="http://www.w3.org/2000/svg">
<path id="Vector" d="M5.03221 2.55568L5.0322 2.55567C4.9745 2.48144 4.90166 2.42034 4.81853 2.37642C4.73539 2.33251 4.64387 2.30678 4.55003 2.30096C4.45619 2.29514 4.36219 2.30934 4.27427 2.34264C4.18634 2.37594 4.10651 2.42757 4.04007 2.49409L4.04006 2.4941L2.87688 3.65841C2.87687 3.65842 2.87686 3.65843 2.87684 3.65844C2.35757 4.17882 2.17096 4.90993 2.39422 5.54584C3.37441 8.33012 4.96887 10.858 7.05932 12.942L7.05954 12.9422C9.14354 15.0326 11.6714 16.6271 14.4557 17.6073C15.0916 17.8306 15.8226 17.6439 16.343 17.1247L5.03221 2.55568ZM5.03221 2.55568L7.05032 5.15089C7.11182 5.2302 7.15452 5.32243 7.17518 5.42064C7.19583 5.51885 7.19392 5.62046 7.16957 5.71782C7.16957 5.71782 7.16957 5.71783 7.16957 5.71783L6.55309 8.18151L6.55308 8.18158C6.46685 8.52728 6.47162 8.88943 6.56692 9.23274C6.66223 9.57606 6.84482 9.88883 7.09692 10.1406L9.85977 12.9046L9.85979 12.9046C10.1117 13.1565 10.4245 13.3389 10.7678 13.434C11.1111 13.5291 11.4732 13.5337 11.8188 13.4473C11.8188 13.4473 11.8188 13.4473 11.8188 13.4473L14.2825 12.8319L14.2825 12.8319C14.3799 12.8076 14.4815 12.8057 14.5797 12.8263C14.6779 12.847 14.7701 12.8897 14.8494 12.9512L17.4446 14.9693L17.4446 14.9693C17.5189 15.027 17.58 15.0999 17.6239 15.183C17.6678 15.2661 17.6935 15.3577 17.6993 15.4515C17.7052 15.5453 17.691 15.6393 17.6577 15.7273C17.6244 15.8152 17.5727 15.895 17.5062 15.9615L17.5062 15.9615L16.343 17.1247L5.03221 2.55568ZM2.8786 1.67519L3.04924 1.50449C3.25613 1.29753 3.50469 1.13696 3.77839 1.03343C4.0521 0.929896 4.34471 0.885779 4.63677 0.904006C4.92884 0.922232 5.21369 1.00238 5.4724 1.13914C5.73112 1.2759 5.95778 1.46613 6.13733 1.69721L8.15549 4.29135L8.15549 4.29136C8.5445 4.79151 8.68162 5.44295 8.52794 6.05769C8.52794 6.0577 8.52794 6.0577 8.52794 6.05771L7.9126 8.52134C7.88495 8.63222 7.88645 8.74836 7.91693 8.85848C7.94742 8.96861 8.00586 9.06898 8.08659 9.14986L10.8505 11.9138C10.9315 11.9947 11.032 12.0532 11.1423 12.0837C11.2527 12.1142 11.369 12.1156 11.48 12.0878L11.4801 12.0878L13.9426 11.4724C13.9426 11.4724 13.9426 11.4724 13.9426 11.4724C14.246 11.3966 14.5627 11.3907 14.8687 11.4552C15.1747 11.5197 15.462 11.653 15.7089 11.8449L15.709 11.8449L18.3031 13.8631L18.2417 13.942L18.3031 13.8631C19.2832 14.6256 19.3731 16.0739 18.4958 16.9501M2.8786 1.67519L17.2619 18.0425C16.4294 18.875 15.1852 19.2406 14.0254 18.8323M2.8786 1.67519H2.87967L1.88716 2.6677C1.03078 3.5241 0.651221 4.80893 1.07268 6.00812L1.0727 6.00816C2.12233 8.99051 3.82989 11.6983 6.06874 13.9307M2.8786 1.67519L14.0254 18.8323M18.4958 16.9501L18.4251 16.8793L18.4958 16.95L18.4958 16.9501ZM18.4958 16.9501L17.3326 18.1133C16.4762 18.9696 15.1925 19.3492 13.9922 18.9266M13.9922 18.9266L14.0254 18.8323M13.9922 18.9266C13.9922 18.9266 13.9922 18.9266 13.9922 18.9266L14.0254 18.8323M13.9922 18.9266C11.0095 17.8771 8.30142 16.1696 6.06874 13.9307M6.06874 13.9307C6.06868 13.9306 6.06862 13.9306 6.06856 13.9305L6.13937 13.8599L6.06876 13.9307C6.06875 13.9307 6.06875 13.9307 6.06874 13.9307Z" fill="black" stroke="black" stroke-width="0.2"/>
</svg>
