<svg width="29" height="28" viewBox="0 0 29 28" fill="none" xmlns="http://www.w3.org/2000/svg">
<ellipse cx="14.5" cy="14" rx="14.5" ry="14" fill="white"/>
<path fill-rule="evenodd" clip-rule="evenodd" d="M22.8009 9.64252C22.9212 9.2494 22.8009 8.95996 22.2245 8.95996H20.3214C19.8372 8.95996 19.6139 9.2098 19.4928 9.48556C19.4928 9.48556 18.5249 11.7867 17.154 13.2814C16.7103 13.7148 16.5088 13.8524 16.2666 13.8524C16.1455 13.8524 15.9636 13.7148 15.9636 13.321V9.64252C15.9636 9.1702 15.8302 8.95996 15.4271 8.95996H12.4343C12.132 8.95996 11.95 9.17884 11.95 9.38692C11.95 9.83404 12.6359 9.93772 12.7062 11.1963V13.9308C12.7062 14.5306 12.5953 14.6393 12.3531 14.6393C11.7079 14.6393 10.1383 12.3274 9.20671 9.68212C9.02619 9.16732 8.84349 8.95996 8.35702 8.95996H6.45249C5.90875 8.95996 5.8 9.2098 5.8 9.48556C5.8 9.9766 6.44524 12.416 8.80507 15.6423C10.3783 17.8455 12.5931 19.04 14.6107 19.04C15.8207 19.04 15.9701 18.775 15.9701 18.3178V16.6524C15.9701 16.1218 16.0846 16.016 16.4682 16.016C16.7509 16.016 17.2345 16.1542 18.364 17.2162C19.6545 18.4755 19.8669 19.04 20.5933 19.04H22.4964C23.0401 19.04 23.3127 18.775 23.1561 18.2508C22.9836 17.7296 22.3674 16.9728 21.5503 16.075C21.1066 15.5638 20.4411 15.013 20.2388 14.7372C19.9568 14.3837 20.0373 14.226 20.2388 13.9114C20.2388 13.9114 22.5588 10.7247 22.8002 9.64252H22.8009Z" fill="#1A323C"/>
</svg>
