<svg width="113" height="127" viewBox="0 0 113 127" fill="none" xmlns="http://www.w3.org/2000/svg">
<path d="M53.0057 18.3882C51.7256 17.8682 50.7655 16.0047 50.4455 15.1379L51.7256 20.9884C48.8453 23.5886 47.176 25.8638 46.6051 33.0144C45.8785 42.1151 48.8453 51.0273 53.0057 55.7944L59.9033 50.3371C55.2737 45.6985 53.0057 37.5648 53.0057 31.7143C53.0057 25.9702 54.9259 21.3134 56.206 19.6883L53.0057 18.3882Z" fill="#0F7DFF"/>
<path d="M19.6795 26.1672C21.6808 37.6288 39.7914 49.3067 51.0369 56.6595L45.4141 60.7684C36.3313 54.2806 17.9494 43.684 14.2731 31.7899C9.32897 15.7942 17.5169 4.39724 23.3559 0C21.3375 4.18098 17.7764 15.2678 19.6795 26.1672Z" fill="#0F7DFF"/>
<path d="M14.273 43.2513C6.91466 35.1809 6.4156 23.4998 6.9202 18.8142C4.68554 24.0765 -0.43255 33.6469 7.56897 45.4139C13.4512 54.0642 28.4739 64.3004 35.2499 68.3372L40.8726 64.4445C33.5199 59.2544 21.842 51.5528 14.273 43.2513Z" fill="#0F7DFF"/>
<path d="M8.86656 55.7944C4.54141 51.2962 1.15337 45.5582 0 43.2515V49.5229C0 53.1993 1.73006 56.6594 4.54141 60.5521C6.79049 63.6662 19.0307 72.3741 24.8696 76.3389L30.4923 71.7975C25.0859 68.3373 13.1917 60.2926 8.86656 55.7944Z" fill="#0F7DFF"/>
<path d="M22.2748 83.9079C26.3835 89.3144 32.8714 96.4509 55.146 125.429L31.7902 86.7193C56.4433 67.2561 67.6887 63.3635 90.1795 43.4678C108.735 27.0528 96.2349 3.89264 88.0172 0C89.9635 1.87423 98.9251 20.3282 86.2869 35.4662C80.9389 41.8721 21.9047 83.4209 22.2748 83.9079Z" fill="url(#paint0_linear_24_827)"/>
<path d="M61.2358 14.3927C55.5074 13.8866 51.9054 11.6511 50.8205 10.5967C50.8205 12.0729 51.2111 15.2784 52.7734 16.2907C54.7262 17.556 56.6791 17.2397 62.8632 18.1887C67.8104 18.9479 69.0472 20.4031 69.0472 21.0357C67.8538 20.5085 64.9462 19.454 62.8632 19.454C60.2593 19.454 58.9574 19.1377 61.2358 21.0357C63.0585 22.5541 67.2029 22.9337 69.0472 22.9337C68.5048 23.3555 66.6387 24.1358 63.5141 23.8827C60.3895 23.6297 58.0895 22.3011 57.33 21.6684C56.5706 21.8793 55.247 24.1358 56.0281 31.4748C56.8093 38.8137 61.5786 44.9245 64.3995 46.9279L72.5468 41.8147C70.377 41.3929 62.7981 37.9913 61.2358 34.9544C59.2829 31.1584 63.1886 27.3624 67.4199 26.7297C70.8048 26.2236 73.17 28.4169 73.9294 29.5768C74.2549 28.1005 74.5153 24.4521 72.953 21.6684C71.0001 18.1887 68.3963 15.0254 61.2358 14.3927Z" fill="url(#paint1_linear_24_827)"/>
<path d="M101.857 56.8759C95.2831 62.7581 78.4294 74.3928 70.9325 79.3667C73.6717 81.3851 79.3665 85.4219 79.799 86.0707C80.0389 86.4306 57.264 124.348 57.264 125.646L56.8757 126.295L88.8818 84.5569L83.0429 79.7992C87.0076 77.06 96.9266 69.8081 104.885 62.7149C112.843 55.6216 112.67 46.7839 111.589 43.2517C111.084 45.3422 108.432 50.9937 101.857 56.8759Z" fill="url(#paint2_linear_24_827)"/>
<path d="M66.3911 82.8267L60.5521 86.9356L64.0122 89.5306L56.6595 115.698L72.8788 87.8006L66.3911 82.8267Z" fill="url(#paint3_linear_24_827)"/>
<path d="M48.658 89.5305L56.0107 116.563L39.1426 87.3679C57.957 74.0321 92.5424 49.8462 98.6135 41.9539C105.101 33.5198 104.813 24.7253 105.101 19.2468C107.336 20.9769 112.886 32.871 105.966 44.1164C97.9575 57.1306 48.658 89.098 48.658 89.5305Z" fill="url(#paint4_linear_24_827)"/>
<defs>
<linearGradient id="paint0_linear_24_827" x1="97.4898" y1="33.7199" x2="27.7294" y2="114.933" gradientUnits="userSpaceOnUse">
<stop/>
<stop offset="1" stop-color="#0F7DFF"/>
</linearGradient>
<linearGradient id="paint1_linear_24_827" x1="73.4748" y1="20.3638" x2="53.4019" y2="44.6626" gradientUnits="userSpaceOnUse">
<stop/>
<stop offset="1" stop-color="#0F7DFF"/>
</linearGradient>
<linearGradient id="paint2_linear_24_827" x1="110.466" y1="65.5766" x2="64.9067" y2="122.653" gradientUnits="userSpaceOnUse">
<stop/>
<stop offset="1" stop-color="#0F7DFF"/>
</linearGradient>
<linearGradient id="paint3_linear_24_827" x1="72.3917" y1="91.6636" x2="53.9478" y2="108.8" gradientUnits="userSpaceOnUse">
<stop/>
<stop offset="1" stop-color="#0F7DFF"/>
</linearGradient>
<linearGradient id="paint4_linear_24_827" x1="107.22" y1="45.4088" x2="54.9369" y2="116.413" gradientUnits="userSpaceOnUse">
<stop/>
<stop offset="1" stop-color="#0F7DFF"/>
</linearGradient>
</defs>
</svg>
