<svg width="44" height="42" viewBox="0 0 44 42" fill="none" xmlns="http://www.w3.org/2000/svg">
<ellipse cx="21.6198" cy="20.7882" rx="21.6198" ry="20.7882" fill="white"/>
<path fill-rule="evenodd" clip-rule="evenodd" d="M33.9966 14.318C34.176 13.7342 33.9966 13.3044 33.1372 13.3044H30.2997C29.5776 13.3044 29.2447 13.6754 29.0641 14.0849C29.0641 14.0849 27.621 17.5018 25.5769 19.7212C24.9154 20.3648 24.6149 20.569 24.2538 20.569C24.0733 20.569 23.802 20.3648 23.802 19.78V14.318C23.802 13.6166 23.6031 13.3044 23.0021 13.3044H18.5399C18.0891 13.3044 17.8178 13.6295 17.8178 13.9384C17.8178 14.6023 18.8404 14.7563 18.9452 16.6251V20.6856C18.9452 21.5761 18.7798 21.7376 18.4188 21.7376C17.4567 21.7376 15.1164 18.3047 13.7274 14.3768C13.4582 13.6123 13.1858 13.3044 12.4605 13.3044H9.6208C8.81008 13.3044 8.64793 13.6754 8.64793 14.0849C8.64793 14.814 9.60999 18.4362 13.1285 23.2269C15.4742 26.4983 18.7766 28.272 21.7849 28.272C23.589 28.272 23.8117 27.8785 23.8117 27.1997V24.7268C23.8117 23.9389 23.9825 23.7817 24.5543 23.7817C24.9759 23.7817 25.6969 23.987 27.3811 25.5639C29.3052 27.4338 29.6219 28.272 30.705 28.272H33.5426C34.3533 28.272 34.7597 27.8785 34.5263 27.1002C34.269 26.3262 33.3502 25.2026 32.1319 23.8694C31.4704 23.1103 30.478 22.2924 30.1765 21.883C29.756 21.358 29.8759 21.1239 30.1765 20.6567C30.1765 20.6567 33.6355 15.9248 33.9955 14.318H33.9966Z" fill="#1A323C"/>
</svg>
