<svg width="44" height="42" viewBox="0 0 44 42" fill="none" xmlns="http://www.w3.org/2000/svg">
<ellipse cx="22.0741" cy="20.7882" rx="21.204" ry="20.7882" fill="white"/>
<path d="M9.35684 33.2611L11.0769 27.0645C9.94351 25.1597 9.34805 22.9933 9.35175 20.7881C9.35175 13.8993 15.0476 8.31519 22.0741 8.31519C29.1007 8.31519 34.7965 13.8993 34.7965 20.7881C34.7965 27.6769 29.1007 33.2611 22.0741 33.2611C19.8258 33.2646 17.6171 32.6813 15.6748 31.571L9.35684 33.2611ZM17.4826 14.9358C17.3183 14.9458 17.1578 14.9882 17.0106 15.0606C16.8726 15.1372 16.7466 15.233 16.6366 15.3449C16.4839 15.4859 16.3974 15.6081 16.3045 15.7266C15.8343 16.3265 15.5814 17.063 15.5857 17.8196C15.5883 18.4307 15.7511 19.0257 16.0056 19.582C16.5259 20.707 17.3821 21.8982 18.5131 23.0021C18.7854 23.2677 19.0513 23.5347 19.3376 23.7829C20.7413 24.9946 22.4142 25.8684 24.223 26.3348L24.9469 26.4434C25.1822 26.4558 25.4176 26.4384 25.6542 26.4271C26.0247 26.4084 26.3865 26.31 26.714 26.139C26.8806 26.0549 27.0432 25.9633 27.2013 25.8646C27.2013 25.8646 27.256 25.8297 27.3603 25.7524C27.5321 25.6276 27.6376 25.5391 27.7801 25.3931C27.8857 25.2859 27.9773 25.1599 28.0473 25.0165C28.1465 24.8131 28.2458 24.4252 28.2865 24.1022C28.317 23.8552 28.3081 23.7205 28.3043 23.6369C28.2992 23.5035 28.186 23.365 28.0626 23.3064L27.3221 22.9809C27.3221 22.9809 26.2153 22.5081 25.5397 22.2063C25.4685 22.1759 25.3922 22.1585 25.3145 22.1552C25.2275 22.1464 25.1395 22.156 25.0566 22.1833C24.9736 22.2106 24.8976 22.255 24.8336 22.3136V22.3111C24.8273 22.3111 24.742 22.3822 23.8222 23.4748C23.7694 23.5443 23.6967 23.5969 23.6133 23.6258C23.5299 23.6547 23.4397 23.6585 23.354 23.6369C23.2711 23.6152 23.1899 23.5877 23.111 23.5546C22.9533 23.4898 22.8986 23.4648 22.7904 23.4187L22.7841 23.4162C22.0562 23.1046 21.3823 22.6838 20.7866 22.1689C20.6263 22.0317 20.4775 21.882 20.3248 21.7373C19.8243 21.2674 19.3881 20.7358 19.0271 20.1557L18.9521 20.0373C18.8982 19.9576 18.8546 19.8717 18.8223 19.7816C18.774 19.5982 18.8999 19.451 18.8999 19.451C18.8999 19.451 19.2091 19.1192 19.3528 18.9396C19.4725 18.7904 19.5842 18.6351 19.6874 18.4744C19.8375 18.2374 19.8846 17.9942 19.8057 17.8058C19.4495 16.9527 19.0806 16.1033 18.7014 15.2601C18.6264 15.093 18.4037 14.9732 18.2014 14.9495C18.1327 14.9421 18.064 14.9346 17.9953 14.9296C17.8245 14.9213 17.6533 14.9229 17.4826 14.9346V14.9358Z" fill="#1A323C"/>
</svg>
