<svg width="43" height="42" viewBox="0 0 43 42" fill="none" xmlns="http://www.w3.org/2000/svg">
<ellipse cx="21.7037" cy="20.7882" rx="21.2962" ry="20.7882" fill="white"/>
<path d="M31.595 10.9466C30.927 10.333 28.2213 8.3606 22.1958 8.33471C22.1958 8.33471 15.0857 7.90803 11.6221 11.0952C9.69556 13.027 9.02081 15.8562 8.94335 19.3653C8.86588 22.8744 8.77943 29.4513 15.1014 31.2391H15.107L15.1014 33.9624C15.1014 33.9624 15.0598 35.0657 15.7829 35.2875C16.6563 35.5621 17.1728 34.7223 18.0092 33.8194C18.4673 33.3229 19.0982 32.5957 19.5776 32.0406C22.3249 32.2958 25.0954 32.0838 27.7722 31.4136L27.6038 31.4496C28.4773 31.1648 33.4194 30.531 34.2188 23.9552C35.0541 17.1666 33.8214 12.8841 31.595 10.9466ZM32.327 23.4598C31.6456 28.9481 27.642 29.2971 26.9055 29.5335C25.2978 29.9433 23.4521 30.1775 21.5513 30.1775C21.0057 30.1775 20.4645 30.1583 19.929 30.12L20.0009 30.1245C20.0009 30.1245 17.2637 33.4333 16.4116 34.2934C16.1331 34.5726 15.8266 34.5501 15.8323 33.9928C15.8323 33.6292 15.8536 29.4693 15.8536 29.4693C10.5017 27.981 10.8115 22.379 10.8744 19.4531C10.9373 16.5271 11.4852 14.1224 13.1164 12.508C16.0489 9.84328 22.0857 10.2384 22.0857 10.2384C27.1862 10.2598 29.6281 11.801 30.1961 12.3178C32.0756 13.9333 33.0332 17.797 32.327 23.4587V23.4598ZM25.0171 19.1953V19.211C25.0147 19.2987 24.9789 19.3821 24.917 19.4441C24.8551 19.506 24.7718 19.5418 24.6844 19.5439C24.5969 19.5461 24.512 19.5145 24.4471 19.4557C24.3822 19.3969 24.3423 19.3154 24.3356 19.2279V19.2268C24.3585 18.9918 24.3302 18.7545 24.2528 18.5315C24.1753 18.3085 24.0505 18.105 23.887 17.935C23.7235 17.765 23.5251 17.6327 23.3056 17.547C23.0861 17.4614 22.8507 17.4246 22.6156 17.439H22.6201C22.5329 17.4323 22.4516 17.3921 22.393 17.327C22.3344 17.2618 22.303 17.1765 22.3053 17.0888C22.3076 17.0011 22.3434 16.9176 22.4054 16.8556C22.4673 16.7936 22.5506 16.7578 22.6381 16.7557H22.6572H22.6561L22.7335 16.7546C23.047 16.7544 23.3571 16.819 23.6446 16.9441C23.9322 17.0692 24.191 17.2522 24.405 17.4818C24.6191 17.7115 24.7837 17.9827 24.8888 18.2789C24.9939 18.575 25.0372 18.8896 25.016 19.2032V19.1964L25.0171 19.1953ZM26.0848 19.7931C26.1376 17.555 24.7432 15.8033 22.0958 15.6074C22.0499 15.6059 22.0047 15.5952 21.963 15.5758C21.9213 15.5565 21.884 15.5288 21.8532 15.4946C21.8224 15.4604 21.7988 15.4203 21.7838 15.3768C21.7688 15.3332 21.7628 15.287 21.7661 15.2411C21.7693 15.1951 21.7818 15.1503 21.8027 15.1092C21.8237 15.0682 21.8527 15.0319 21.888 15.0024C21.9233 14.9729 21.9642 14.9508 22.0082 14.9376C22.0522 14.9243 22.0984 14.9201 22.1441 14.9251H22.143H22.1621C22.7903 14.9251 23.412 15.0539 23.9888 15.3035C24.5657 15.5531 25.0855 15.9184 25.5165 16.3768C25.9475 16.8352 26.2804 17.3771 26.495 17.9692C26.7095 18.5613 26.8011 19.1912 26.764 19.8201L26.7652 19.8077C26.7591 19.895 26.72 19.9766 26.6559 20.0359C26.5917 20.0951 26.5074 20.1275 26.4202 20.1263C26.333 20.1252 26.2495 20.0906 26.1869 20.0297C26.1243 19.9687 26.0874 19.8861 26.0837 19.7987V19.7897L26.0848 19.7931ZM28.5548 20.5012V20.5035C28.5502 20.5907 28.5125 20.6729 28.4495 20.7333C28.3864 20.7936 28.3027 20.8274 28.2156 20.8278C28.1285 20.8283 28.0445 20.7953 27.9808 20.7356C27.9172 20.6759 27.8787 20.5941 27.8733 20.5068C27.8463 16.204 24.9846 13.8613 21.5165 13.8365C21.4718 13.8365 21.4276 13.8277 21.3863 13.8105C21.3451 13.7934 21.3076 13.7682 21.276 13.7366C21.2444 13.7049 21.2193 13.6673 21.2022 13.6259C21.1851 13.5845 21.1763 13.5402 21.1763 13.4954C21.1763 13.4506 21.1851 13.4062 21.2022 13.3648C21.2193 13.3234 21.2444 13.2858 21.276 13.2542C21.3076 13.2225 21.3451 13.1974 21.3863 13.1802C21.4276 13.1631 21.4718 13.1542 21.5165 13.1542C25.4 13.1813 28.5211 15.8686 28.5525 20.5001L28.5548 20.5012ZM27.9653 25.6776V25.6878C27.3972 26.6909 26.334 27.7986 25.2394 27.4451L25.2293 27.4294C23.2777 26.7092 21.4483 25.692 19.8055 24.4134L19.8515 24.4471C19.0341 23.7963 18.2925 23.0549 17.6409 22.2372L17.6196 22.209C17.0296 21.4643 16.5031 20.6712 16.0456 19.8381L16.0007 19.7492C15.4594 18.8543 15.0106 17.9063 14.6613 16.92L14.6276 16.8097C14.2751 15.7121 15.3742 14.6459 16.3801 14.0763H16.3902C16.5882 13.9492 16.8258 13.8998 17.0578 13.9374C17.2897 13.975 17.4998 14.097 17.6477 14.28L17.6488 14.2823C17.6488 14.2823 18.3011 15.0625 18.5806 15.4486C18.8434 15.8078 19.197 16.383 19.38 16.7039C19.5178 16.9231 19.5739 17.1841 19.5383 17.4408C19.5028 17.6975 19.3779 17.9333 19.1858 18.1066L19.1847 18.1078L18.5537 18.6144C18.4553 18.7096 18.3793 18.8256 18.3311 18.9539C18.283 19.0822 18.2639 19.2196 18.2753 19.3563V19.3529C18.5877 20.3969 19.1516 21.3477 19.9171 22.1215C20.6827 22.8952 21.6264 23.4681 22.665 23.7897L22.7122 23.8021C22.8478 23.8128 22.9841 23.7934 23.1114 23.7454C23.2386 23.6973 23.3538 23.6217 23.4487 23.524L23.9539 22.8913C24.1275 22.6978 24.3638 22.5722 24.621 22.537C24.8781 22.5017 25.1394 22.559 25.3584 22.6988L25.3539 22.6965C26.2667 23.2178 27.0559 23.7908 27.7756 24.4404L27.7632 24.4291C27.9458 24.5751 28.0673 24.7843 28.1039 25.0155C28.1404 25.2467 28.0894 25.4833 27.9608 25.6788L27.9631 25.6754L27.9653 25.6776Z" fill="#1A323C"/>
</svg>
