<svg width="15" height="22" viewBox="0 0 15 22" fill="none" xmlns="http://www.w3.org/2000/svg">
<path opacity="0.4" d="M7.2 5.3898C7.88198 5.3898 8.53604 5.65846 9.01827 6.13668C9.50051 6.6149 9.77143 7.2635 9.77143 7.9398C9.77143 8.27468 9.70492 8.60627 9.57569 8.91565C9.44646 9.22503 9.25705 9.50614 9.01827 9.74293C8.77949 9.97972 8.49602 10.1675 8.18404 10.2957C7.87206 10.4238 7.53768 10.4898 7.2 10.4898C6.51801 10.4898 5.86396 10.2211 5.38172 9.74293C4.89949 9.26471 4.62857 8.61611 4.62857 7.9398C4.62857 7.2635 4.89949 6.6149 5.38172 6.13668C5.86396 5.65846 6.51801 5.3898 7.2 5.3898ZM7.2 0.799805C9.10956 0.799805 10.9409 1.55205 12.2912 2.89106C13.6414 4.23007 14.4 6.04616 14.4 7.9398C14.4 13.2948 7.2 21.1998 7.2 21.1998C7.2 21.1998 0 13.2948 0 7.9398C0 6.04616 0.758569 4.23007 2.10883 2.89106C3.45909 1.55205 5.29044 0.799805 7.2 0.799805ZM7.2 2.8398C5.83603 2.8398 4.52792 3.37712 3.56345 4.33356C2.59898 5.29 2.05714 6.5872 2.05714 7.9398C2.05714 8.9598 2.05714 10.9998 7.2 17.844C12.3429 10.9998 12.3429 8.9598 12.3429 7.9398C12.3429 6.5872 11.801 5.29 10.8365 4.33356C9.87208 3.37712 8.56397 2.8398 7.2 2.8398Z" fill="white"/>
</svg>
