<svg width="63" height="62" viewBox="0 0 63 62" fill="none" xmlns="http://www.w3.org/2000/svg">
<ellipse cx="31.5" cy="31" rx="31.5" ry="31" fill="#0F7DFF"/>
<path d="M58.6409 27.6643C58.8333 28.0255 58.9511 28.4207 58.9877 28.8269C59.0242 29.2325 58.9791 29.6411 58.8549 30.0293C58.7278 30.4115 58.5242 30.7645 58.2561 31.0676C57.9873 31.3713 57.6594 31.6186 57.2917 31.795L57.2865 31.7976L52.0768 34.3733L51.9882 34.4171L51.9243 34.4918L48.7374 38.2192M58.6409 27.6643C59.3325 29.5304 59.0418 30.3961 57.53 31.6676L51.9243 34.4918L48.7374 38.2192M48.4349 38.4973L40.307 46.4998L40.305 46.5016C39.7134 47.07 38.922 47.3913 38.0958 47.399C37.8497 47.3964 37.6048 47.3645 37.3665 47.304L37.363 47.3031L24.3948 44.1111L24.3873 44.1094C23.9673 44.0129 23.5742 43.8258 23.2363 43.5616L23.2333 43.5594L11.1594 34.2694L11.1213 34.24L11.0781 34.2188L5.71423 31.5783L5.71329 31.5778C4.97109 31.2071 4.40709 30.5633 4.14377 29.7857C4.02055 29.4015 3.97586 28.9971 4.01231 28.596C4.04885 28.1936 4.16623 27.8025 4.35763 27.4452L4.35853 27.4436L9.85848 17.0757C10.235 16.3691 10.8763 15.8344 11.646 15.5854C12.4149 15.3366 13.2519 15.392 13.9801 15.74L18.9861 18.2044L19.1554 18.2877L19.3373 18.2355L30.2219 15.1108C30.9297 14.9218 31.6816 14.9757 32.3541 15.2636L39.729 18.5642L39.8244 18.6068H39.929H43.5959H43.7103L43.8126 18.5562L49.0207 15.9814C49.7454 15.6267 50.5829 15.5652 51.3527 15.8107C52.1226 16.0562 52.7647 16.5896 53.1406 17.2956L58.6409 27.6643C59.3325 29.5304 59.0418 30.3961 57.53 31.6676L51.9882 34.4171L48.4349 38.4973ZM47.0237 35.4888L47.3825 35.7455L47.6725 35.4153L49.3943 33.4562L49.6082 33.2126L49.4572 32.927L43.3755 21.4357L43.2403 21.1803H42.9474H34.9205H34.7205L34.5792 21.3195L25.8368 29.9269L25.4465 30.3112L25.8861 30.6398L27.0935 31.5423L27.0994 31.5467C28.1153 32.2826 29.3438 32.6796 30.6053 32.6796C31.8666 32.6796 33.0951 32.2826 34.1111 31.5467L34.1147 31.5441L36.9767 29.4307L36.9778 29.4299C37.2005 29.2644 37.4714 29.1735 37.7503 29.1706C38.0292 29.1678 38.3018 29.2529 38.528 29.4135L47.0237 35.4888ZM12.8221 18.0605L12.3978 17.8516L12.1783 18.2653L6.67799 28.6339L6.45115 29.0615L6.88976 29.2774L10.825 31.2146L11.2493 31.4236L11.4687 31.0099L16.9691 20.6413L17.1959 20.2136L16.7573 19.9977L12.8221 18.0605ZM37.9782 44.8113L38.2436 44.8767L38.4368 44.6863L45.1893 38.0381L45.5876 37.646L45.1321 37.3195L38.0666 32.2564L37.7776 32.0492L37.492 32.2609L35.6831 33.6022L35.6822 33.6028C34.2146 34.6778 32.4343 35.2584 30.6053 35.2584C28.7765 35.2584 26.9966 34.6781 25.5292 33.6036L25.5273 33.6022L24.3236 32.7023L24.319 32.699C23.9625 32.439 23.6674 32.106 23.4539 31.7231C23.2404 31.34 23.1137 30.916 23.0824 30.4801C23.0513 30.0442 23.1161 29.6069 23.273 29.1981C23.4297 28.7892 23.6745 28.4188 23.9905 28.1121L23.9933 28.1094L32.7201 19.4953L33.1056 19.1791L33.6947 18.6957L32.9963 18.3831L31.2746 17.6126L31.1115 17.5396L30.9395 17.589L20.0507 20.715L19.853 20.7718L19.7579 20.9514L13.6762 32.4428L13.4912 32.7924L13.8069 33.0353L24.8523 41.5327L24.9329 41.5948L25.0322 41.6192L37.9782 44.8113ZM56.1114 29.4966L56.5469 29.2797L56.3212 28.854L50.8208 18.4854L50.6004 18.0699L50.1751 18.2816L46.24 20.2408L45.8042 20.4577L46.0301 20.8834L51.5304 31.252L51.7509 31.6676L52.1762 31.4559L56.1114 29.4966ZM27.6446 51.9566L27.6293 51.9518L27.6137 51.948L20.8631 50.2973C20.3911 50.1798 19.954 49.9518 19.5903 49.6328L19.5863 49.6293L14.5555 45.3145L14.5545 45.3137C14.4263 45.2042 14.321 45.0709 14.245 44.9214C14.1689 44.7717 14.1236 44.6088 14.1115 44.4419C14.0993 44.2751 14.1208 44.1074 14.1744 43.9487C14.2282 43.7899 14.313 43.6432 14.4242 43.5169C14.5355 43.3904 14.6709 43.287 14.8226 43.2122C14.9745 43.1373 15.1398 43.0928 15.309 43.0809C15.4782 43.069 15.6481 43.09 15.8092 43.1428C15.9703 43.1956 16.1192 43.2791 16.2474 43.3886L21.3005 47.7032L21.3878 47.7778L21.5 47.8053L28.2284 49.456C28.5659 49.5401 28.8567 49.7513 29.0377 50.0443C29.2181 50.3363 29.2754 50.686 29.1974 51.019C29.1242 51.2978 28.9596 51.5451 28.7293 51.7224C28.4985 51.9001 28.2145 51.9977 27.9216 52C27.8276 51.9994 27.7341 51.9848 27.6446 51.9566Z" fill="white"/>
</svg>
