<svg width="63" height="62" viewBox="0 0 63 62" fill="none" xmlns="http://www.w3.org/2000/svg">
<ellipse cx="31.5" cy="31" rx="31.5" ry="31" fill="#0F7DFF"/>
<path d="M46.1409 45.1111V32.3278L49.4147 29.1239V45.1111C49.4147 46.0844 49.0653 46.9106 48.3538 47.6083C47.6406 48.305 46.7926 48.65 45.7909 48.65H17.9739C16.9723 48.65 16.1245 48.3052 15.4113 47.6087C14.6996 46.9109 14.35 46.0846 14.35 45.1111V17.8889C14.35 16.9155 14.6995 16.0892 15.4111 15.3915C16.1243 14.6949 16.9722 14.35 17.9739 14.35H45.7909C46.0344 14.35 46.2585 14.372 46.4642 14.4145C46.5022 14.4226 46.5403 14.4314 46.5784 14.441L43.4128 17.5389H17.9739H17.6239V17.8889V45.1111V45.4611H17.9739H45.7909H46.1409V45.1111ZM30.6938 36.0279L30.9386 36.2675L31.1834 36.0279L49.173 18.423L51.495 20.6156L30.9386 40.7325L20.2128 30.2361L22.4941 28.0036L30.6938 36.0279Z" fill="white" stroke="#0F7DFF" stroke-width="0.7"/>
</svg>
