<svg width="63" height="62" viewBox="0 0 63 62" fill="none" xmlns="http://www.w3.org/2000/svg">
<ellipse cx="31.5" cy="31" rx="31.5" ry="31" fill="#0F7DFF"/>
<path d="M18.0625 16V19.9792H11V23.875C11 30.3958 12.9375 34.0312 17.5937 36.2917C19.3248 37.2224 20.9225 38.3821 22.3437 39.7396C23.4861 40.9581 24.8793 41.9141 26.4271 42.5417L28.1875 43.0833V47.8021H25.5C22.25 47.8021 21.1562 48.5417 21.1562 50.7396V52.2187H41.4687V50.8958C41.4687 48.7396 40.1354 47.7708 37.0521 47.7708H34.4375V43.0833L36.2292 42.5521C37.7792 41.9238 39.173 40.9639 40.3125 39.7396C41.7952 38.3264 43.4549 37.1114 45.25 36.125C46.6439 35.4542 47.8887 34.5101 48.9104 33.3488C49.9322 32.1874 50.7101 30.8325 51.1979 29.3646C51.5295 27.5471 51.683 25.7015 51.6562 23.8542V19.9896H44.5625V16H18.0625ZM31.3125 22.6354L33.4479 27.0521H38.5937L34.5625 30.7708L35.7187 35.5208L31.3125 33.1562L26.9062 35.5521L28.0625 30.8021L24.0208 27.0833H29.1771L31.3125 22.6354ZM14.7083 23.9583H18V32.1667C17.6563 32.375 16.5833 31.125 15.8021 29.6979C15.3585 28.6053 15.0744 27.4547 14.9583 26.2813L14.7083 23.9583ZM44.625 23.9583H48.2083L47.9062 26.25C47.8352 28.1577 47.0682 29.9734 45.75 31.3542C45.4399 31.7768 45.0463 32.1313 44.5937 32.3958L44.625 23.9583Z" stroke="white" stroke-width="1.7" stroke-linecap="round" stroke-linejoin="round"/>
</svg>
