<svg width="63" height="62" viewBox="0 0 63 62" fill="none" xmlns="http://www.w3.org/2000/svg">
<ellipse cx="31.5" cy="31" rx="31.5" ry="31" fill="#0F7DFF"/>
<path d="M50.1364 26.6744C50.1364 25.6875 49.7794 24.7411 49.1439 24.0433C48.5085 23.3455 47.6466 22.9534 46.7479 22.9534H38.4593C37.2041 22.9534 36.2591 21.8106 36.495 20.5777L37.6669 14.4511C37.7008 14.2651 37.7178 14.0604 37.7178 13.8558C37.7178 13.093 37.4297 12.386 36.9723 11.8837L36.6558 11.5394C35.8609 10.6747 34.4955 10.6779 33.7047 11.5463L24.0285 22.172C23.4016 22.8604 23.0289 23.7906 23.0289 24.8139V43.4185C23.0289 44.4054 23.3859 45.3518 24.0214 46.0496C24.6568 46.7475 25.5187 47.1395 26.4174 47.1395H41.6653C43.0715 47.1395 44.2744 46.2092 44.7826 44.8697L49.8992 31.7534C50.0517 31.3255 50.1364 30.879 50.1364 30.3953V26.6744ZM12.8636 45.1395C12.8636 46.244 13.7591 47.1395 14.8636 47.1395H17.6405C18.7451 47.1395 19.6405 46.244 19.6405 45.1395V26.8139C19.6405 25.7093 18.7451 24.8139 17.6405 24.8139H14.8636C13.7591 24.8139 12.8636 25.7093 12.8636 26.8139V45.1395Z" stroke="white" stroke-width="2"/>
</svg>
